<?xml version="1.0" encoding="UTF-8"?>
<svg version="1.1" xmlns="http://www.w3.org/2000/svg" width="107" height="95">
<path d="M0 0 C35.31 0 70.62 0 107 0 C107 31.35 107 62.7 107 95 C71.69 95 36.38 95 0 95 C0 63.65 0 32.3 0 0 Z " fill="#030014" transform="translate(0,0)"/>
<path d="M0 0 C1.496039 -0.0230535 2.99315998 -0.00219971 4.48832703 0.05383301 C5.30835709 0.05266479 6.12838715 0.05149658 6.9732666 0.05029297 C9.6749357 0.05585248 12.37214975 0.11799237 15.07304382 0.18078613 C16.94917387 0.19571253 18.82533516 0.20709767 20.70150757 0.21508789 C25.63265015 0.24559107 30.56189865 0.3241372 35.49229431 0.41271973 C40.52611161 0.4946512 45.56023591 0.53111489 50.5945282 0.57141113 C60.46710388 0.65713414 70.33827556 0.79361836 80.20976257 0.96203613 C77.9942192 5.65355356 75.75471621 9.25789946 71.20976257 11.96203613 C65.94703582 12.93604132 60.7557839 12.77882898 55.43241882 12.64562988 C53.89544945 12.63255857 52.35845073 12.62260164 50.82144165 12.61561584 C46.79457217 12.58900936 42.76949701 12.52035645 38.74333191 12.44268799 C34.62757131 12.37081517 30.511518 12.33905345 26.39530945 12.30383301 C18.33264107 12.22897346 10.27142561 12.10965516 2.20976257 11.96203613 C2.75535828 12.97963516 3.30095398 13.99723419 3.86308289 15.04566956 C4.58806993 16.40065773 5.31300191 17.75567537 6.03788757 19.11071777 C6.39640808 19.77904884 6.75492859 20.44737991 7.12431335 21.13596344 C9.98281393 26.48348949 12.65714028 31.89913471 15.20976257 37.39953613 C15.60292664 38.23807129 15.9960907 39.07660645 16.40116882 39.94055176 C17.34090814 41.94609299 18.27713737 43.95317967 19.20976257 45.96203613 C22.97130995 44.70818701 24.48167455 42.82003311 27.20976257 39.96203613 C28.01413757 39.17828613 28.81851257 38.39453613 29.64726257 37.58703613 C32.22650855 34.94488172 34.55876028 32.18715506 36.87773132 29.31750488 C37.31730164 28.8702002 37.75687195 28.42289551 38.20976257 27.96203613 C38.86976257 27.96203613 39.52976257 27.96203613 40.20976257 27.96203613 C40.49851257 27.32266113 40.78726257 26.68328613 41.08476257 26.02453613 C42.20976257 23.96203613 42.20976257 23.96203613 44.20976257 22.96203613 C46.76133912 22.89036263 49.28449229 22.86895171 51.83476257 22.89953613 C52.89437195 22.90630371 52.89437195 22.90630371 53.97538757 22.91320801 C55.72021532 22.92499738 57.46499957 22.94293289 59.20976257 22.96203613 C53.51342374 29.67665672 47.64795918 36.19788512 41.5632782 42.56286621 C40.32622522 43.87210233 39.10473513 45.19621776 37.8992157 46.5345459 C27.99568001 57.5012869 27.99568001 57.5012869 21.33622742 58.60266113 C16.81069873 58.17473739 13.0247345 57.50259791 9.49003601 54.50231934 C8.25820657 52.65592231 7.55014981 50.93646151 6.83476257 48.83703613 C6.22822713 47.38326872 5.6201068 45.93016171 5.01054382 44.47766113 C4.7187323 43.73064941 4.42692078 42.9836377 4.12626648 42.21398926 C2.64029303 38.56278545 0.82196827 35.09110722 -0.97773743 31.58703613 C-1.63786581 30.26084671 -2.29675964 28.93404191 -2.95429993 27.60656738 C-4.08031208 25.35044209 -5.23935273 23.13085355 -6.43867493 20.91125488 C-6.90531555 20.0411377 -7.37195618 19.17102051 -7.85273743 18.27453613 C-8.25621399 17.54879395 -8.65969055 16.82305176 -9.07539368 16.07531738 C-10.26770333 12.55051124 -9.39092643 10.29577351 -7.89635944 6.97731781 C-5.65275413 2.81274153 -4.75448588 1.20678118 0 0 Z " fill="#FD9327" transform="translate(18.790237426757813,21.0379638671875)"/>
<path d="M0 0 C27.06 0 54.12 0 82 0 C78.13809783 7.72380435 78.13809783 7.72380435 74 10 C68.70208221 10.84989445 63.4459703 10.69848521 58.1015625 10.5859375 C56.54073725 10.57473693 54.97989081 10.56620081 53.41903687 10.56021118 C49.32498201 10.53737975 45.23221885 10.47850844 41.13867188 10.4119873 C36.9559069 10.35044021 32.77293172 10.32316984 28.58984375 10.29296875 C20.39263857 10.22875715 12.19648028 10.12644966 4 10 C0 3.375 0 3.375 0 0 Z " fill="#F48515" transform="translate(16,23)"/>
<path d="M0 0 C1.05960938 0.00676758 1.05960938 0.00676758 2.140625 0.01367188 C3.88545275 0.02546125 5.630237 0.04339676 7.375 0.0625 C3.41127475 4.81335867 -0.72294782 9.29863112 -5.1171875 13.65234375 C-5.70799103 14.24173233 -6.29879456 14.83112091 -6.90750122 15.43836975 C-8.76930404 17.29463727 -10.63457745 19.14737085 -12.5 21 C-13.77367011 22.26864672 -15.04710971 23.5375249 -16.3203125 24.80664062 C-19.41922043 27.89460554 -22.52124301 30.97940929 -25.625 34.0625 C-29.4609375 32.2890625 -29.4609375 32.2890625 -30.9375 30.25 C-31.85319245 27.33643311 -31.6771332 25.93833074 -30.625 23.0625 C-28.3125 20.5625 -28.3125 20.5625 -25.625 18.0625 C-24.985625 17.2375 -24.34625 16.4125 -23.6875 15.5625 C-22.00552214 13.52373896 -20.52676523 12.0765789 -18.5 10.4375 C-15.50646585 8.19691618 -15.50646585 8.19691618 -13.625 5.0625 C-12.965 5.0625 -12.305 5.0625 -11.625 5.0625 C-11.33625 4.423125 -11.0475 3.78375 -10.75 3.125 C-8.42726045 -1.13335585 -4.29435779 -0.0515006 0 0 Z " fill="#F38618" transform="translate(70.625,43.9375)"/>
<path d="M0 0 C1.05960938 0.00676758 1.05960938 0.00676758 2.140625 0.01367188 C3.88545275 0.02546125 5.630237 0.04339676 7.375 0.0625 C6.385 1.0525 5.395 2.0425 4.375 3.0625 C4.375 2.4025 4.375 1.7425 4.375 1.0625 C-1.03272929 0.60132451 -5.11466989 0.971775 -9.59521484 4.20751953 C-12.67914145 7.01025267 -15.49560168 10.05815089 -18.3125 13.125 C-19.31987429 14.18262144 -20.32962523 15.23798447 -21.34179688 16.29101562 C-23.79749537 18.85603462 -26.2195717 21.45017368 -28.625 24.0625 C-28.955 23.4025 -29.285 22.7425 -29.625 22.0625 C-24.625 17.0625 -24.625 17.0625 -22.1875 14.6875 C-19.60825403 12.04534559 -17.27600229 9.28761893 -14.95703125 6.41796875 C-14.51746094 5.97066406 -14.07789063 5.52335937 -13.625 5.0625 C-12.965 5.0625 -12.305 5.0625 -11.625 5.0625 C-11.33625 4.423125 -11.0475 3.78375 -10.75 3.125 C-8.42726045 -1.13335585 -4.29435779 -0.0515006 0 0 Z " fill="#F9932C" transform="translate(70.625,43.9375)"/>
</svg>
